# This file uses centimeters as units for non-parametric coordinates.

mtllib side_cylinder.mtl
g default
v -0.112021 0.000221 0.036398
v -0.095290 0.000221 0.069233
v -0.069232 0.000221 0.095291
v -0.036398 0.000221 0.112021
v -0.000000 0.000221 0.117786
v 0.036398 0.000221 0.112021
v 0.069232 0.000221 0.095291
v 0.095290 0.000221 0.069233
v 0.112020 0.000221 0.036398
v -0.349142 0.441012 0.113443
v -0.296998 0.441012 0.215782
v -0.215782 0.441012 0.296998
v -0.113443 0.441012 0.349142
v 0.000000 0.441012 0.367110
v 0.113443 0.441012 0.349142
v 0.215782 0.441012 0.296998
v 0.296998 0.441012 0.215782
v 0.349142 0.441012 0.113443
vt 0.002467 0.003427
vt 0.002467 0.995158
vt 0.126839 0.003427
vt 0.126839 0.995158
vt 0.251210 0.003427
vt 0.251210 0.995158
vt 0.375582 0.003427
vt 0.375582 0.995158
vt 0.499953 0.003427
vt 0.499953 0.995158
vt 0.624325 0.003427
vt 0.624325 0.995158
vt 0.748697 0.003427
vt 0.748697 0.995158
vt 0.873068 0.003427
vt 0.873068 0.995158
vt 0.997440 0.003427
vt 0.997440 0.995158
vn -0.777852 -0.487716 0.396333
vn -0.704177 -0.492328 0.511613
vn -0.704177 -0.492328 0.511613
vn -0.777852 -0.487716 0.396333
vn -0.511613 -0.492328 0.704177
vn -0.511614 -0.492328 0.704176
vn -0.268972 -0.492328 0.827809
vn -0.268972 -0.492328 0.827809
vn 0.000000 -0.492328 0.870410
vn 0.000000 -0.492328 0.870410
vn 0.268972 -0.492328 0.827809
vn 0.268972 -0.492328 0.827809
vn 0.511613 -0.492328 0.704177
vn 0.511613 -0.492328 0.704177
vn 0.704177 -0.492328 0.511613
vn 0.704177 -0.492328 0.511613
vn 0.777852 -0.487716 0.396333
vn 0.777852 -0.487716 0.396333
s 1
g polySurface3 pCylinder2
usemtl initialShadingGroup
f 1/1/1 2/3/2 11/4/3 10/2/4
f 2/3/2 3/5/5 12/6/6 11/4/3
f 3/5/5 4/7/7 13/8/8 12/6/6
f 4/7/7 5/9/9 14/10/10 13/8/8
f 5/9/9 6/11/11 15/12/12 14/10/10
f 6/11/11 7/13/13 16/14/14 15/12/12
f 7/13/13 8/15/15 17/16/16 16/14/14
f 8/15/15 9/17/17 18/18/18 17/16/16
